<svg width="220" height="311" viewBox="0 0 220 311" fill="none" xmlns="http://www.w3.org/2000/svg">
<g clip-path="url(#clip0_317_1689)">
<path d="M219.48 248.96C219.48 249.48 219.48 250.01 219.48 250.54C219.48 266.392 213.183 281.595 201.974 292.804C190.765 304.013 175.562 310.31 159.71 310.31C143.858 310.31 128.655 304.013 117.446 292.804C106.237 281.595 99.94 266.392 99.94 250.54V59.7602C99.9413 54.4842 98.9033 49.2596 96.8851 44.3848C94.867 39.51 91.9083 35.0805 88.178 31.3493C84.4477 27.6181 80.019 24.6583 75.1447 22.639C70.2704 20.6196 65.046 19.5802 59.77 19.5802C54.6645 19.7066 49.6237 20.7533 44.89 22.6702C43.71 23.1602 27.81 30.0102 21.89 46.4702C20.3389 50.7281 19.56 55.2287 19.59 59.7602V250.54H0V59.7602C3.34056e-07 43.9082 6.29719 28.7055 17.5062 17.4965C28.7153 6.28741 43.918 -0.00976562 59.77 -0.00976562C75.622 -0.00976562 90.8247 6.28741 102.034 17.4965C113.243 28.7055 119.54 43.9082 119.54 59.7602V250.54C119.456 255.869 120.433 261.162 122.414 266.11C124.395 271.058 127.341 275.562 131.08 279.361C134.819 283.159 139.276 286.176 144.193 288.235C149.109 290.294 154.385 291.354 159.715 291.354C165.045 291.354 170.321 290.294 175.238 288.235C180.154 286.176 184.611 283.159 188.35 279.361C192.089 275.562 195.035 271.058 197.016 266.11C198.997 261.162 199.974 255.869 199.89 250.54C199.89 250.01 199.89 249.48 199.89 248.96V58.1902H219.48V248.96Z" fill="white"/>
<path d="M42.56 58.1602H36.87V252.15H42.56V58.1602Z" fill="white"/>
<path d="M63.89 58.1602H58.2V252.15H63.89V58.1602Z" fill="white"/>
<path d="M86.51 58.1602H80.82V252.15H86.51V58.1602Z" fill="white"/>
<path d="M140.43 58.1602H134.74V252.15H140.43V58.1602Z" fill="white"/>
<path d="M161.76 58.1602H156.07V252.15H161.76V58.1602Z" fill="white"/>
<path d="M184.38 58.1602H178.69V252.15H184.38V58.1602Z" fill="white"/>
<path d="M209.68 66.7298C215.087 66.7298 219.47 63.3406 219.47 59.1598C219.47 54.979 215.087 51.5898 209.68 51.5898C204.273 51.5898 199.89 54.979 199.89 59.1598C199.89 63.3406 204.273 66.7298 209.68 66.7298Z" fill="white"/>
<path d="M9.79 258.09C15.1969 258.09 19.58 254.701 19.58 250.52C19.58 246.339 15.1969 242.95 9.79 242.95C4.38313 242.95 0 246.339 0 250.52C0 254.701 4.38313 258.09 9.79 258.09Z" fill="white"/>
</g>
<defs>
<clipPath id="clip0_317_1689">
<rect width="219.48" height="310.31" fill="white"/>
</clipPath>
</defs>
</svg>
